<svg width="121" height="34" viewBox="0 0 121 34" fill="none" xmlns="http://www.w3.org/2000/svg">
<path d="M4.744 10.832L4.616 12.016L5.32 11.12L13 2.448H19.016L9.288 13.008L19.048 26H13.16L5.896 15.952L4.744 17.104V26H0.0400002V2.448H4.744V10.832ZM19.5312 26C19.5312 26 19.7126 25.712 20.0752 25.136C20.4379 24.56 20.9179 23.792 21.5152 22.832C22.1339 21.872 22.8166 20.784 23.5632 19.568C24.3312 18.352 25.1099 17.104 25.8993 15.824C26.7099 14.544 27.4886 13.296 28.2352 12.08C29.0032 10.864 29.6859 9.776 30.2832 8.816C30.9019 7.856 31.3926 7.088 31.7552 6.512C32.1179 5.936 32.2993 5.648 32.2993 5.648L32.8112 6.928H24.3312C23.8832 6.928 23.4139 6.832 22.9232 6.64C22.4539 6.42667 22.0486 6.14933 21.7072 5.808C21.3872 5.44533 21.2272 5.05067 21.2272 4.624V1.264H25.4832V1.712C25.4832 2.18133 25.5579 2.42666 25.7072 2.448C25.8566 2.448 26.1232 2.448 26.5072 2.448H39.5953L27.1792 22.032L26.9233 21.52H39.5632V26H19.5312ZM49.697 2.448C52.1503 2.448 54.1023 2.94933 55.553 3.952C57.0037 4.93333 57.729 6.40533 57.729 8.368C57.729 9.81867 57.3663 11.0347 56.641 12.016C55.937 12.976 54.9663 13.7013 53.729 14.192C52.513 14.6613 51.1157 14.896 49.537 14.896L48.801 12.4C50.7423 12.4 52.4597 12.6667 53.953 13.2C55.4677 13.7333 56.6623 14.5013 57.537 15.504C58.4117 16.4853 58.849 17.6693 58.849 19.056C58.849 20.336 58.6143 21.424 58.145 22.32C57.697 23.1947 57.0783 23.9093 56.289 24.464C55.521 24.9973 54.6463 25.392 53.665 25.648C52.6837 25.8827 51.6703 26 50.625 26H42.785V2.448H49.697ZM50.241 12.08C51.1583 12.08 51.8303 11.8027 52.257 11.248C52.705 10.6933 52.929 10.064 52.929 9.36C52.929 8.54933 52.6517 7.94133 52.097 7.536C51.5637 7.13067 50.8383 6.928 49.921 6.928H47.425V12.08H50.241ZM50.401 21.68C51.0837 21.68 51.7023 21.5947 52.257 21.424C52.8117 21.232 53.249 20.944 53.569 20.56C53.889 20.1547 54.049 19.6533 54.049 19.056C54.049 18.3733 53.857 17.8613 53.473 17.52C53.089 17.1573 52.5877 16.912 51.969 16.784C51.3717 16.6347 50.7423 16.56 50.081 16.56H47.425V21.68H50.401ZM62.7677 0.751999H67.2477V26H62.7677V0.751999ZM70.7735 18.832C70.7735 17.4027 71.1042 16.1227 71.7655 14.992C72.4482 13.8613 73.3975 12.976 74.6135 12.336C75.8295 11.6747 77.2268 11.344 78.8055 11.344C80.4055 11.344 81.7922 11.6747 82.9655 12.336C84.1388 12.976 85.0348 13.8613 85.6535 14.992C86.2935 16.1227 86.6135 17.4027 86.6135 18.832C86.6135 20.2613 86.2935 21.552 85.6535 22.704C85.0348 23.8347 84.1388 24.7307 82.9655 25.392C81.7922 26.0533 80.3842 26.384 78.7415 26.384C77.2055 26.384 75.8295 26.0853 74.6135 25.488C73.4188 24.8907 72.4802 24.0267 71.7975 22.896C71.1148 21.7653 70.7735 20.4107 70.7735 18.832ZM75.2855 18.864C75.2855 19.5893 75.4348 20.2507 75.7335 20.848C76.0322 21.424 76.4375 21.8827 76.9495 22.224C77.4615 22.5653 78.0375 22.736 78.6775 22.736C79.3815 22.736 79.9895 22.5653 80.5015 22.224C81.0135 21.8827 81.4082 21.424 81.6855 20.848C81.9628 20.2507 82.1015 19.5893 82.1015 18.864C82.1015 18.1173 81.9628 17.456 81.6855 16.88C81.4082 16.304 81.0135 15.8453 80.5015 15.504C79.9895 15.1627 79.3815 14.992 78.6775 14.992C78.0375 14.992 77.4615 15.1627 76.9495 15.504C76.4375 15.8453 76.0322 16.304 75.7335 16.88C75.4348 17.456 75.2855 18.1173 75.2855 18.864ZM97.3748 33.04C96.1161 33.04 95.0494 32.8907 94.1748 32.592C93.3214 32.2933 92.5961 31.9307 91.9988 31.504C91.4014 31.0773 90.8681 30.672 90.3988 30.288L93.0228 27.216C93.5134 27.664 94.0788 28.0907 94.7188 28.496C95.3801 28.9227 96.2441 29.136 97.3108 29.136C98.0148 29.136 98.6654 29.008 99.2628 28.752C99.8814 28.5173 100.372 28.1653 100.735 27.696C101.119 27.2267 101.311 26.64 101.311 25.936V22.864L101.471 23.664C101.129 24.3893 100.511 25.0293 99.6148 25.584C98.7188 26.1173 97.5454 26.384 96.0948 26.384C94.8361 26.384 93.6628 26.064 92.5748 25.424C91.5081 24.7627 90.6548 23.8773 90.0148 22.768C89.3748 21.6373 89.0548 20.3573 89.0548 18.928C89.0548 17.456 89.3961 16.1547 90.0788 15.024C90.7614 13.872 91.6468 12.9653 92.7348 12.304C93.8228 11.6427 94.9748 11.312 96.1908 11.312C97.4068 11.312 98.4521 11.4933 99.3268 11.856C100.223 12.1973 100.895 12.624 101.343 13.136L101.183 13.552L101.663 12.016H105.791V26C105.791 27.3653 105.407 28.5707 104.639 29.616C103.871 30.6827 102.847 31.5147 101.567 32.112C100.308 32.7307 98.9108 33.04 97.3748 33.04ZM93.5668 18.8C93.5668 19.5467 93.7374 20.2187 94.0788 20.816C94.4201 21.4133 94.8788 21.8827 95.4548 22.224C96.0521 22.5653 96.7134 22.736 97.4388 22.736C98.0574 22.736 98.6014 22.6613 99.0708 22.512C99.5614 22.3413 99.9881 22.1067 100.351 21.808C100.735 21.488 101.055 21.0933 101.311 20.624V17.2C101.119 16.7307 100.831 16.336 100.447 16.016C100.063 15.6747 99.6148 15.4187 99.1028 15.248C98.6121 15.056 98.0574 14.96 97.4388 14.96C96.7134 14.96 96.0521 15.1307 95.4548 15.472C94.8788 15.792 94.4201 16.24 94.0788 16.816C93.7374 17.392 93.5668 18.0533 93.5668 18.8ZM114.937 26.288C113.785 26.288 112.707 26.0853 111.705 25.68C110.723 25.2747 109.891 24.7093 109.209 23.984L111.065 21.52C111.747 22.1387 112.377 22.5867 112.953 22.864C113.55 23.12 114.083 23.248 114.553 23.248C114.915 23.248 115.235 23.216 115.513 23.152C115.811 23.0667 116.046 22.9493 116.217 22.8C116.387 22.6293 116.473 22.416 116.473 22.16C116.473 21.7973 116.323 21.5093 116.025 21.296C115.747 21.0827 115.385 20.912 114.937 20.784C114.489 20.6347 114.009 20.4853 113.497 20.336C112.217 19.9307 111.289 19.344 110.713 18.576C110.158 17.7867 109.881 16.9333 109.881 16.016C109.881 15.312 110.062 14.608 110.425 13.904C110.809 13.1787 111.406 12.5813 112.217 12.112C113.049 11.6213 114.115 11.376 115.417 11.376C116.59 11.376 117.582 11.4933 118.393 11.728C119.203 11.9627 119.971 12.3467 120.697 12.88L119.001 15.504C118.595 15.184 118.137 14.9173 117.625 14.704C117.134 14.4693 116.675 14.3413 116.249 14.32C115.865 14.2987 115.534 14.3413 115.257 14.448C115.001 14.5547 114.798 14.6933 114.649 14.864C114.499 15.0347 114.425 15.216 114.425 15.408C114.403 15.8133 114.553 16.1333 114.873 16.368C115.214 16.6027 115.641 16.784 116.153 16.912C116.665 17.04 117.166 17.1893 117.657 17.36C118.339 17.5733 118.926 17.8613 119.417 18.224C119.907 18.5867 120.281 19.024 120.537 19.536C120.814 20.0267 120.953 20.624 120.953 21.328C120.953 22.1813 120.729 22.992 120.281 23.76C119.854 24.5067 119.193 25.1147 118.297 25.584C117.422 26.0533 116.302 26.288 114.937 26.288Z" fill="url(#paint0_linear_75_176)"/>
<defs>
<linearGradient id="paint0_linear_75_176" x1="14.9821" y1="2" x2="89.9643" y2="2" gradientUnits="userSpaceOnUse">
<stop stop-color="#37379B"/>
<stop offset="0.675933" stop-color="#569ED6"/>
<stop offset="1" stop-color="#E94560"/>
</linearGradient>
</defs>
</svg>
