<svg width="47" height="88" viewBox="0 0 47 88" fill="none" xmlns="http://www.w3.org/2000/svg">
<path d="M43.0611 54.8939C44.6572 56.094 44.6572 58.4893 43.0611 59.6895L16.7404 79.4806C14.7632 80.9673 11.9375 79.5566 11.9375 77.0828V37.5006C11.9375 35.0267 14.7632 33.616 16.7404 35.1028L43.0611 54.8939Z" fill="#30D5C8"/>
<path d="M43.0611 28.3105C44.6572 29.5107 44.6572 31.906 43.0611 33.1061L16.7404 52.8972C14.7632 54.384 11.9375 52.9733 11.9375 50.4994V10.9172C11.9375 8.44338 14.7632 7.03269 16.7404 8.51943L43.0611 28.3105Z" fill="#30D5C8"/>
<g filter="url(#filter0_d_1_12)">
<path d="M27.7074 42.2934C28.9836 43.0733 28.9836 44.9267 27.7074 45.7066L12.5429 54.9738C11.2102 55.7882 9.5 54.8291 9.5 53.2672V34.7328C9.5 33.1709 11.2102 32.2118 12.5429 33.0262L27.7074 42.2934Z" fill="#0A427D"/>
</g>
<defs>
<filter id="filter0_d_1_12" x="0.5" y="27.7296" width="37.1646" height="40.5407" filterUnits="userSpaceOnUse" color-interpolation-filters="sRGB">
<feFlood flood-opacity="0" result="BackgroundImageFix"/>
<feColorMatrix in="SourceAlpha" type="matrix" values="0 0 0 0 0 0 0 0 0 0 0 0 0 0 0 0 0 0 127 0" result="hardAlpha"/>
<feOffset dy="4"/>
<feGaussianBlur stdDeviation="4.5"/>
<feComposite in2="hardAlpha" operator="out"/>
<feColorMatrix type="matrix" values="0 0 0 0 0 0 0 0 0 0 0 0 0 0 0 0 0 0 0.85 0"/>
<feBlend mode="normal" in2="BackgroundImageFix" result="effect1_dropShadow_1_12"/>
<feBlend mode="normal" in="SourceGraphic" in2="effect1_dropShadow_1_12" result="shape"/>
</filter>
</defs>
</svg>
