<svg width="61" height="94" viewBox="0 0 61 94" fill="none" xmlns="http://www.w3.org/2000/svg">
<path d="M56.8467 58.9448C58.7507 60.1162 58.7507 62.8838 56.8467 64.0552L19.822 86.8331C17.8231 88.0628 15.25 86.6247 15.25 84.2779L15.25 38.7221C15.25 36.3753 17.8231 34.9372 19.822 36.1669L56.8467 58.9448Z" fill="#569ED6"/>
<path d="M56.8467 29.9448C58.7507 31.1162 58.7507 33.8838 56.8467 35.0552L19.822 57.8331C17.8231 59.0628 15.25 57.6247 15.25 55.2779L15.25 9.72207C15.25 7.37528 17.8231 5.9372 19.822 7.16689L56.8467 29.9448Z" fill="#4E4FEB"/>
<g filter="url(#filter0_d_77_35)">
<path d="M36.4223 45.2111C37.8964 45.9482 37.8964 48.0518 36.4223 48.7889L14.8944 59.5528C13.5646 60.2177 12 59.2507 12 57.7639V36.2361C12 34.7493 13.5646 33.7823 14.8944 34.4472L36.4223 45.2111Z" fill="#E94560"/>
</g>
<defs>
<filter id="filter0_d_77_35" x="3" y="29.2335" width="43.5279" height="43.5331" filterUnits="userSpaceOnUse" color-interpolation-filters="sRGB">
<feFlood flood-opacity="0" result="BackgroundImageFix"/>
<feColorMatrix in="SourceAlpha" type="matrix" values="0 0 0 0 0 0 0 0 0 0 0 0 0 0 0 0 0 0 127 0" result="hardAlpha"/>
<feOffset dy="4"/>
<feGaussianBlur stdDeviation="4.5"/>
<feComposite in2="hardAlpha" operator="out"/>
<feColorMatrix type="matrix" values="0 0 0 0 0 0 0 0 0 0 0 0 0 0 0 0 0 0 0.85 0"/>
<feBlend mode="normal" in2="BackgroundImageFix" result="effect1_dropShadow_77_35"/>
<feBlend mode="normal" in="SourceGraphic" in2="effect1_dropShadow_77_35" result="shape"/>
</filter>
</defs>
</svg>
