<svg width="31" height="31" viewBox="0 0 31 31" fill="none" xmlns="http://www.w3.org/2000/svg">
<path d="M3.65527 21.2979C5.80283 23.4478 8.66271 24.7385 11.6961 24.9267C14.7296 25.1149 17.7271 24.1876 20.1241 22.3196L28.3717 30.5648C28.6642 30.8472 29.056 31.0035 29.4626 30.9999C29.8692 30.9964 30.2582 30.8334 30.5458 30.5459C30.8333 30.2584 30.9964 29.8696 30.9999 29.463C31.0035 29.0565 30.8472 28.6649 30.5646 28.3725L22.317 20.1273C24.2685 17.6236 25.1911 14.47 24.8968 11.3096C24.6024 8.14928 23.1131 5.22021 20.7328 3.11979C18.3524 1.01938 15.2603 -0.094169 12.0869 0.0062456C8.91352 0.10666 5.89798 1.41348 3.65527 3.66018C2.49645 4.81807 1.57718 6.19288 0.949998 7.70604C0.322814 9.21921 0 10.8411 0 12.479C0 14.1169 0.322814 15.7388 0.949998 17.252C1.57718 18.7652 2.49645 20.14 3.65527 21.2979ZM5.84822 5.85558C7.38138 4.32291 9.39869 3.36907 11.5564 3.15659C13.7142 2.94411 15.8789 3.48614 17.6817 4.69032C19.4845 5.8945 20.8139 7.68633 21.4434 9.76052C22.0729 11.8347 21.9636 14.0629 21.134 16.0656C20.3044 18.0682 18.8059 19.7213 16.8938 20.7433C14.9817 21.7652 12.7743 22.0928 10.6478 21.6701C8.52119 21.2475 6.60698 20.1008 5.23127 18.4254C3.85557 16.7501 3.10348 14.6497 3.10315 12.4821C3.0989 11.2504 3.33936 10.0301 3.81059 8.89207C4.28181 7.75401 4.97442 6.72083 5.84822 5.85248V5.85558Z" fill="#4E4FEB"/>
</svg>
