<svg width="60" height="60" viewBox="0 0 60 60" fill="none" xmlns="http://www.w3.org/2000/svg">
<path d="M59.7375 38.8825L52.5 24.41V15H57.5V10H32.5V0H27.5V10H2.50001V15H7.50001V20.355C3.20001 21.475 8.58307e-06 25.355 8.58307e-06 30C8.58307e-06 35.515 4.48501 40 10 40C15.515 40 20 35.515 20 30C20 25.355 15.5 20.355 10.7857 20.355V15H27.5V32.1025C22.6925 34.5325 20 38.9875 20 45C20 54.3925 26.5425 60 37.5 60C37.9944 59.9999 38.4776 59.8532 38.8886 59.5785C39.2997 59.3038 39.62 58.9134 39.8092 58.4566C39.9984 57.9999 40.0479 57.4973 39.9515 57.0124C39.855 56.5275 39.617 56.0821 39.2675 55.7325C39.225 55.69 35 51.39 35 45C35 38.685 39.2325 34.305 39.2675 34.2675C39.617 33.9179 39.855 33.4725 39.9515 32.9876C40.0479 32.5027 39.9984 32.0001 39.8092 31.5434C39.62 31.0866 39.2997 30.6962 38.8886 30.4215C38.4776 30.1468 37.9944 30.0001 37.5 30C35.7075 30 32.4046 30.2975 30.8571 30.59V22.7143V15H49.2857V24.41L40.2625 38.8825C39.875 39.6575 39.9175 40.5775 40.3725 41.3175C40.83 42.05 41.6325 42.5 42.5 42.5H57.5C58.3675 42.5 59.17 42.05 59.6275 41.315C60.0825 40.5775 60.1225 39.6575 59.7375 38.8825ZM17.6429 30C17.6429 35.5714 12.7575 37.7143 10 37.7143C4.78572 37.7143 2.50001 32.7575 2.50001 30C2.50001 24.41 6.74251 22.2857 9.50001 22.2857C15 22.2857 17.6429 27.24 17.6429 30ZM36 57.8571C27 57.6501 22.7143 50.8175 22.7143 45C22.7143 39.1825 27.5 32.1025 35.5714 32.9876C34.3289 35.4026 31.7143 41.21 31.7143 45C31.7143 48.79 34.7575 55.4421 36 57.8571ZM43.2857 40L51 27L57.5 40H43.2857Z" fill="url(#paint0_linear_75_246)" fill-opacity="0.66"/>
<defs>
<linearGradient id="paint0_linear_75_246" x1="29.2143" y1="0" x2="29.2143" y2="60" gradientUnits="userSpaceOnUse">
<stop offset="0.421875" stop-color="#4E4FEB"/>
<stop offset="1" stop-color="#E94560"/>
</linearGradient>
</defs>
</svg>
