<svg width="70" height="70" viewBox="0 0 70 70" fill="none" xmlns="http://www.w3.org/2000/svg">
<path d="M69.6938 45.3629L61.25 28.4783V17.5H67.0833V11.6667H37.9167V0H32.0833V11.6667H2.91668V17.5H8.75001V23.7475C3.73334 25.0542 1.00136e-05 29.5808 1.00136e-05 35C1.00136e-05 41.4342 5.23251 46.6667 11.6667 46.6667C18.1008 46.6667 23.3333 41.4342 23.3333 35C23.3333 29.5808 18.0833 23.7475 12.5833 23.7475V17.5H32.0833V37.4529C26.4746 40.2879 23.3333 45.4854 23.3333 52.5C23.3333 63.4579 30.9663 70 43.75 70C44.3268 69.9999 44.8906 69.8288 45.3701 69.5083C45.8496 69.1878 46.2234 68.7323 46.4441 68.1994C46.6648 67.6665 46.7225 67.0802 46.61 66.5145C46.4976 65.9488 46.2199 65.4291 45.8121 65.0212C45.7625 64.9717 40.8333 59.955 40.8333 52.5C40.8333 45.1325 45.7713 40.0225 45.8121 39.9788C46.2199 39.5709 46.4976 39.0512 46.61 38.4855C46.7225 37.9198 46.6648 37.3335 46.4441 36.8006C46.2234 36.2677 45.8496 35.8122 45.3701 35.4917C44.8906 35.1712 44.3268 35.0001 43.75 35C41.6588 35 37.8054 35.3471 36 35.6883V26.5V17.5H57.5V28.4783L46.9729 45.3629C46.5208 46.2671 46.5704 47.3404 47.1013 48.2038C47.635 49.0583 48.5713 49.5833 49.5833 49.5833H67.0833C68.0954 49.5833 69.0317 49.0583 69.5654 48.2008C70.0963 47.3404 70.1429 46.2671 69.6938 45.3629ZM20.5833 35C20.5833 41.5 14.8838 44 11.6667 44C5.58334 44 2.91668 38.2171 2.91668 35C2.91668 28.4783 7.86626 26 11.0833 26C17.5 26 20.5833 31.78 20.5833 35ZM42 67.5C31.5 67.2584 26.5 59.2871 26.5 52.5C26.5 45.7129 32.0833 37.4529 41.5 38.4855C40.0504 41.303 37 48.0783 37 52.5C37 56.9217 40.5504 64.6825 42 67.5ZM50.5 46.6667L59.5 31.5L67.0833 46.6667H50.5Z" fill="url(#paint0_linear_1_22)" fill-opacity="0.66"/>
<defs>
<linearGradient id="paint0_linear_1_22" x1="34.0833" y1="0" x2="34.0833" y2="70" gradientUnits="userSpaceOnUse">
<stop stop-color="#23BCFE"/>
<stop offset="1" stop-color="#65A16C"/>
</linearGradient>
</defs>
</svg>
