<svg width="97" height="97" viewBox="0 0 97 97" fill="none" xmlns="http://www.w3.org/2000/svg">
<circle opacity="0.84" cx="48.5" cy="48.5" r="47.5" stroke="#FF5F5F" stroke-opacity="0.4" stroke-width="2" stroke-linecap="round" stroke-dasharray="7 7"/>
<circle opacity="0.84" cx="48.5" cy="48.5" r="44.3022" stroke="#FF5F5F" stroke-opacity="0.5" stroke-width="2" stroke-linecap="round" stroke-dasharray="7 7"/>
<circle opacity="0.84" cx="48.4999" cy="48.5" r="40.7491" stroke="#FF7272" stroke-opacity="0.6" stroke-width="2" stroke-linecap="round" stroke-dasharray="7 7"/>
<circle opacity="0.84" cx="48.5" cy="48.5" r="37.196" stroke="#FF7272" stroke-opacity="0.7" stroke-width="2" stroke-linecap="round" stroke-dasharray="7 7"/>
<circle opacity="0.84" cx="48.3224" cy="48.3224" r="33.4652" stroke="#56A86E" stroke-opacity="0.6" stroke-width="2" stroke-linecap="round" stroke-dasharray="7 7"/>
<circle opacity="0.84" cx="48.6776" cy="48.3224" r="29.9121" stroke="#56A86E" stroke-opacity="0.7" stroke-width="2" stroke-linecap="round" stroke-dasharray="7 7"/>
<!-- <path opacity="0.84" d="M74.3442 38.7046C74.933 40.3164 75.3781 41.9988 75.6636 43.7358C75.1252 43.8143 74.747 44.3103 74.8163 44.8522C74.9616 45.9877 75.0366 47.1459 75.0366 48.3223C75.0366 49.4988 74.9616 50.657 74.8163 51.7924C74.747 52.3343 75.1252 52.8303 75.6636 52.9088C75.3781 54.6459 74.933 56.3283 74.3442 57.94C73.8367 57.744 73.2637 57.9902 73.0579 58.4962C72.1765 60.6633 71.0218 62.6872 69.6373 64.524C69.3085 64.9603 69.3911 65.5784 69.8197 65.9135C68.7232 67.2642 67.503 68.508 66.1767 69.6271C65.8337 69.2049 65.2141 69.134 64.7842 69.4708C62.9684 70.8934 60.9651 72.0807 58.8187 72.9882C58.3157 73.2008 58.0774 73.7769 58.28 74.2815C56.6737 74.8915 54.9957 75.3529 53.2624 75.6492C53.1809 75.1115 52.6832 74.7361 52.1419 74.8081C51.0086 74.9588 49.8523 75.0366 48.6776 75.0366C47.5028 75.0366 46.3465 74.9588 45.2133 74.8081C44.6719 74.7361 44.1743 75.1115 44.0928 75.6492C42.3594 75.3529 40.6814 74.8915 39.0751 74.2815C39.2778 73.7769 39.0394 73.2008 38.5364 72.9882C36.3901 72.0807 34.3867 70.8934 32.571 69.4708C32.141 69.134 31.5215 69.2049 31.1784 69.6271C29.8521 68.508 28.632 67.2642 27.5355 65.9136C27.9641 65.5785 28.0466 64.9603 27.7178 64.524C26.3333 62.6872 25.1787 60.6633 24.2973 58.4962C24.0914 57.9902 23.5184 57.744 23.0109 57.94C22.4222 56.3283 21.9771 54.6459 21.6915 52.9088C22.23 52.8303 22.6082 52.3343 22.5388 51.7924C22.3936 50.657 22.3186 49.4988 22.3186 48.3223C22.3186 47.1459 22.3936 45.9877 22.5388 44.8522C22.6082 44.3103 22.23 43.8143 21.6915 43.7358C21.9771 41.9988 22.4222 40.3164 23.0109 38.7046C23.5184 38.9006 24.0914 38.6544 24.2973 38.1484C25.1787 35.9814 26.3333 33.9574 27.7178 32.1206C28.0466 31.6844 27.9641 31.0662 27.5355 30.7311C28.632 29.3804 29.8521 28.1366 31.1784 27.0175C31.5215 27.4397 32.141 27.5107 32.571 27.1738C34.3867 25.7512 36.3901 24.564 38.5364 23.6565C39.0394 23.4438 39.2778 22.8678 39.0751 22.3631C40.6814 21.7531 42.3594 21.2917 44.0928 20.9955C44.1743 21.5332 44.6719 21.9086 45.2133 21.8366C46.3465 21.6859 47.5028 21.608 48.6776 21.608C49.8523 21.608 51.0086 21.6859 52.1419 21.8366C52.6832 21.9086 53.1809 21.5332 53.2624 20.9955C54.9957 21.2917 56.6737 21.7531 58.28 22.3631C58.0774 22.8678 58.3157 23.4438 58.8187 23.6565C60.9651 24.564 62.9684 25.7512 64.7842 27.1738C65.2141 27.5107 65.8337 27.4397 66.1767 27.0175C67.503 28.1366 68.7232 29.3804 69.8197 30.7311C69.3911 31.0662 69.3085 31.6844 69.6373 32.1206C71.0218 33.9574 72.1765 35.9814 73.0579 38.1484C73.2637 38.6544 73.8367 38.9006 74.3442 38.7046Z" stroke="#56A86E" stroke-opacity="0.8" stroke-width="2" stroke-linecap="round" stroke-dasharray="7 7"/> -->
<circle opacity="0.84" cx="48.5" cy="48.5" r="27" stroke="#56A86E" stroke-opacity="0.85" stroke-width="2" stroke-linecap="round" stroke-dasharray="7 7"/>
<circle opacity="0.84" cx="48.5" cy="48.5" r="22.9835" stroke="#56A86E" stroke-opacity="0.85" stroke-width="2" stroke-linecap="round" stroke-dasharray="7 7"/>
<circle opacity="0.84" cx="48.6776" cy="48.3224" r="19.6081" stroke="#23BCFE" stroke-opacity="0.5" stroke-width="2" stroke-linecap="round" stroke-dasharray="7 7"/>
<circle opacity="0.84" cx="48.6776" cy="48.3223" r="16.0549" stroke="#23BCFE" stroke-opacity="0.6" stroke-width="2" stroke-linecap="round" stroke-dasharray="7 7"/>
<circle opacity="0.84" cx="48.6777" cy="48.3224" r="12.8571" stroke="#23BCFE" stroke-opacity="0.7" stroke-width="2" stroke-linecap="round" stroke-dasharray="7 7"/>
<circle opacity="0.84" cx="48.6777" cy="48.3224" r="9.65934" stroke="#23BCFE" stroke-opacity="0.8" stroke-width="2" stroke-linecap="round" stroke-dasharray="7 7"/>
<circle opacity="0.84" cx="48.4999" cy="48.5" r="6.28388" stroke="#23BCFE" stroke-opacity="0.85" stroke-width="2" stroke-linecap="round" stroke-dasharray="7 7"/>
<circle opacity="0.84" cx="48.5" cy="48.5" r="3.08608" stroke="#23BCFE" stroke-opacity="0.6" stroke-width="2" stroke-linecap="round" stroke-dasharray="7 7"/>
</svg>
